<svg xmlns="http://www.w3.org/2000/svg" xmlns:xlink="http://www.w3.org/1999/xlink" width="750" zoomAndPan="magnify" viewBox="0 0 562.5 562.499982" height="750" preserveAspectRatio="xMidYMid meet" version="1.0"><path fill="#5e17eb" d="M 246.34375 206.066406 L 190.144531 206.066406 C 184.523438 206.066406 180.777344 209.8125 180.777344 215.433594 L 180.777344 255.710938 L 255.710938 255.710938 L 255.710938 215.433594 C 255.710938 209.8125 251.964844 206.066406 246.34375 206.066406 Z M 246.34375 206.066406 " fill-opacity="1" fill-rule="nonzero"/><path fill="#5e17eb" d="M 265.078125 246.34375 L 295.988281 246.34375 L 295.988281 255.710938 L 265.078125 255.710938 Z M 265.078125 246.34375 " fill-opacity="1" fill-rule="nonzero"/><path fill="#5e17eb" d="M 281 0 C 125.511719 0 0 125.511719 0 281 C 0 436.488281 125.511719 562 281 562 C 436.488281 562 562 436.488281 562 281 C 562 125.511719 436.488281 0 281 0 Z M 468.332031 430.867188 L 93.667969 430.867188 L 93.667969 340.011719 L 468.332031 340.011719 Z M 468.332031 330.644531 L 93.667969 330.644531 L 93.667969 311.910156 C 93.667969 281 118.957031 255.710938 149.867188 255.710938 L 171.410156 255.710938 L 171.410156 246.34375 L 149.867188 246.34375 C 143.308594 246.34375 136.753906 247.28125 131.132812 249.152344 L 131.132812 143.308594 C 131.132812 136.753906 136.753906 131.132812 143.308594 131.132812 L 417.753906 131.132812 C 424.308594 131.132812 429.929688 136.753906 429.929688 143.308594 L 429.929688 249.152344 C 424.308594 247.28125 417.753906 246.34375 411.195312 246.34375 L 389.652344 246.34375 L 389.652344 255.710938 L 412.132812 255.710938 C 443.042969 255.710938 468.332031 281 468.332031 311.910156 Z M 468.332031 330.644531 " fill-opacity="1" fill-rule="nonzero"/><path fill="#5e17eb" d="M 371.855469 206.066406 L 315.65625 206.066406 C 310.035156 206.066406 306.289062 209.8125 306.289062 215.433594 L 306.289062 255.710938 L 381.222656 255.710938 L 381.222656 215.433594 C 381.222656 209.8125 376.539062 206.066406 371.855469 206.066406 Z M 371.855469 206.066406 " fill-opacity="1" fill-rule="nonzero"/></svg>